<?xml version="1.0" encoding="UTF-8"?>
<svg version="1.1" xmlns="http://www.w3.org/2000/svg" width="523" height="523">
<path d="M0 0 C3.89091975 3.38455962 7.61308305 6.92112996 11.28076172 10.54492188 C12.08126953 11.3209375 12.88177734 12.09695312 13.70654297 12.89648438 C24.35345199 23.90270294 32.03967448 38.25250912 37.28076172 52.54492188 C37.50989258 53.15480957 37.73902344 53.76469727 37.97509766 54.39306641 C49.94709351 86.79715782 46.34836655 126.51184669 32.34277344 157.62890625 C10.89971898 203.07438337 -32.89772779 236.65736529 -79.26220703 253.59960938 C-162.00835399 282.84171029 -256.65681052 273.91470024 -335.50195312 237.11865234 C-340.99956674 234.42950244 -346.3630425 231.50468037 -351.71923828 228.54492188 C-351.71923828 227.22492188 -351.71923828 225.90492188 -351.71923828 224.54492188 C-345.2835943 225.03218302 -340.21303057 226.28116115 -334.28173828 228.73242188 C-314.86762396 236.25863271 -294.35426037 239.52409061 -273.71923828 241.54492188 C-271.82044922 241.74214844 -271.82044922 241.74214844 -269.88330078 241.94335938 C-239.97349613 244.57201204 -207.83221355 242.97209345 -178.71923828 235.54492188 C-177.70152344 235.28549805 -176.68380859 235.02607422 -175.63525391 234.75878906 C-161.82762304 231.1490922 -148.65441768 226.57233986 -135.71923828 220.54492188 C-134.70023437 220.0716748 -134.70023437 220.0716748 -133.66064453 219.58886719 C-108.04816147 207.54401039 -84.8692167 191.84972252 -64.10205078 172.61914062 C-62.71923828 171.54492188 -62.71923828 171.54492188 -60.71923828 171.54492188 C-60.71923828 170.88492188 -60.71923828 170.22492188 -60.71923828 169.54492188 C-60.05923828 169.54492188 -59.39923828 169.54492188 -58.71923828 169.54492188 C-58.46529297 168.96226562 -58.21134766 168.37960937 -57.94970703 167.77929688 C-56.58603495 165.30304155 -55.07698625 163.73971562 -53.03173828 161.79492188 C-44.77909662 153.71975638 -37.70747975 144.71436716 -30.71923828 135.54492188 C-29.83171875 134.38669922 -29.83171875 134.38669922 -28.92626953 133.20507812 C-13.24409788 111.30048984 -7.93145593 81.04654373 -12.26245117 54.82543945 C-16.35043877 32.4933597 -25.53036216 13.33647544 -44.30126953 -0.24804688 C-61.84763876 -11.97157485 -80.54262886 -16.70744411 -101.53173828 -13.89257812 C-108.74854694 -12.36976529 -115.1679183 -8.20750715 -120.94189453 -3.73242188 C-122.71923828 -2.45507812 -122.71923828 -2.45507812 -124.71923828 -2.45507812 C-124.71923828 -1.79507813 -124.71923828 -1.13507813 -124.71923828 -0.45507812 C-126.38139096 0.8838782 -128.04887436 2.2162233 -129.71923828 3.54492188 C-131.07624688 5.19236936 -132.41330676 6.85669843 -133.71923828 8.54492188 C-132.89681641 8.64289063 -132.07439453 8.74085938 -131.22705078 8.84179688 C-117.60312687 10.66671047 -106.10569807 15.14370968 -96.71923828 25.54492188 C-96.22681641 26.06828125 -95.73439453 26.59164062 -95.22705078 27.13085938 C-86.32307515 36.92080274 -82.99936166 49.1852714 -83.37548828 62.31835938 C-84.4477267 72.38277908 -88.93501777 80.41789352 -94.71923828 88.54492188 C-95.83298828 90.15367187 -95.83298828 90.15367187 -96.96923828 91.79492188 C-105.90830954 100.73399314 -117.56024889 105.57044901 -130.15673828 106.04492188 C-146.69386038 105.46502279 -160.15875368 97.86422808 -171.71923828 86.54492188 C-176.30383516 80.72321155 -179.49414665 74.59104536 -181.71923828 67.54492188 C-181.90228516 66.96613281 -182.08533203 66.38734375 -182.27392578 65.79101562 C-184.92608592 52.41389214 -181.88730378 38.48052914 -175.71923828 26.54492188 C-175.26033203 25.63226563 -174.80142578 24.71960938 -174.32861328 23.77929688 C-169.66539092 15.13196221 -163.60565819 8.4359358 -156.71923828 1.54492188 C-155.92775391 0.73023438 -155.13626953 -0.08445313 -154.32080078 -0.92382812 C-114.03742515 -39.96983044 -40.94090007 -34.65034996 0 0 Z " fill="#2491D4" transform="translate(442.71923828125,163.455078125)"/>
<path d="M0 0 C1.55208121 0.03135518 3.10416457 0.06260447 4.65625 0.09375 C57.70475241 1.57884599 111.66469086 16.25125103 158 42 C158 43.32 158 44.64 158 46 C151.5644469 45.51274573 146.49366405 44.26397804 140.5625 41.8125 C121.50833536 34.41914701 101.25989332 31.04349336 81 29 C79.74058594 28.86851563 78.48117187 28.73703125 77.18359375 28.6015625 C11.02199559 23.03164411 -58.61732303 38.20312611 -110.59155273 81.43701172 C-113.09099092 83.59118561 -115.54325294 85.79739919 -118 88 C-119.9908364 89.65690609 -121.99049768 91.30328222 -124 92.9375 C-125.2684375 93.97197266 -125.2684375 93.97197266 -126.5625 95.02734375 C-128.23254102 96.37889938 -129.91700594 97.71276994 -131.61328125 99.03125 C-133.72664064 100.77451208 -135.43162209 102.47259905 -137.1875 104.5625 C-140.01773743 107.87774558 -142.92112789 111.10674733 -145.875 114.3125 C-161.85000227 131.90675363 -173.63427917 149.97248713 -180 173 C-180.2371875 173.84949219 -180.474375 174.69898438 -180.71875 175.57421875 C-186.44301574 199.69189719 -182.18386514 227.58744461 -169.94921875 249.03125 C-166.78304773 253.85347439 -163.10354917 257.96101716 -159 262 C-158.38640625 262.61230469 -157.7728125 263.22460938 -157.140625 263.85546875 C-141.73171994 278.24369848 -122.74465412 285.76461554 -101.765625 285.30859375 C-88.66378426 284.68358512 -76.84092663 278.45488063 -67 270 C-66.67 269.34 -66.34 268.68 -66 268 C-65.34 268 -64.68 268 -64 268 C-63.690625 267.38125 -63.38125 266.7625 -63.0625 266.125 C-62.375 264.75 -61.6875 263.375 -61 262 C-61.7528125 261.9484375 -62.505625 261.896875 -63.28125 261.84375 C-76.81725513 260.39815722 -88.72033727 254.70272229 -97.94921875 244.57421875 C-106.97600936 233.24344729 -111.29841216 220.52366748 -110 206 C-106.93327611 190.79570022 -98.72458041 179.56961537 -86 171 C-75.82204046 164.93275033 -64.54906737 163.04591712 -52.95703125 165.91015625 C-37.25083733 170.28461937 -24.58327313 178.82130198 -16 193 C-9.50352229 206.65969918 -9.09980859 220.72839875 -14 235 C-23.80650204 259.45687858 -42.94912535 278.69965348 -67.08300781 289.22998047 C-95.95464564 300.82717172 -132.30002999 302.00327413 -161.25830078 290.06933594 C-171.31183603 285.7477079 -180.49255718 280.956958 -189 274 C-190.32837891 272.97132813 -190.32837891 272.97132813 -191.68359375 271.921875 C-215.37798706 253.2352329 -232.06116511 227.39631026 -236.640625 197.171875 C-241.49274936 154.34660351 -233.11548667 115.9421964 -206.08886719 81.9765625 C-201.90944992 76.81289393 -197.56413532 71.82837473 -193 67 C-192.24460938 66.19175781 -191.48921875 65.38351563 -190.7109375 64.55078125 C-160.12793105 32.82215729 -117.60570963 14.52465001 -75 6 C-74.28166992 5.85369141 -73.56333984 5.70738281 -72.82324219 5.55664062 C-49.20511519 0.90508163 -24.03628839 -0.81203677 0 0 Z " fill="#2491D4" transform="translate(274,88)"/>
</svg>
