<?xml version="1.0" encoding="UTF-8"?>
<svg version="1.1" xmlns="http://www.w3.org/2000/svg" width="200" height="200">
<path d="M0 0 C37.62 0 75.24 0 114 0 C114 28.05 114 56.1 114 85 C111.63840888 86.18079556 110.23043861 86.12575288 107.59692383 86.12698364 C106.67150787 86.12980347 105.74609192 86.13262329 104.79263306 86.13552856 C103.77438446 86.13350433 102.75613586 86.1314801 101.70703125 86.12939453 C100.10207291 86.13202301 100.10207291 86.13202301 98.46469116 86.13470459 C94.91394447 86.13912003 91.36324724 86.13618618 87.8125 86.1328125 C85.35392243 86.13348563 82.89534492 86.13445573 80.43676758 86.13571167 C75.27847664 86.13718823 70.12020299 86.13503543 64.96191406 86.13037109 C58.33702722 86.12467384 51.71218089 86.12795307 45.08729553 86.13394356 C40.00882663 86.1375503 34.93036738 86.13641006 29.85189819 86.13381577 C27.40855912 86.13314681 24.96521917 86.13397383 22.5218811 86.13629532 C19.11221987 86.13882367 15.70262502 86.13497861 12.29296875 86.12939453 C11.27472015 86.13141876 10.25647156 86.13344299 9.20736694 86.13552856 C7.81924301 86.13129883 7.81924301 86.13129883 6.40307617 86.12698364 C5.59633957 86.12660662 4.78960297 86.12622959 3.9584198 86.12584114 C2 86 2 86 0 85 C0 56.95 0 28.9 0 0 Z " fill="#F2E536" transform="translate(43,37)"/>
<path d="M0 0 C0.83271455 -0.00410574 1.6654291 -0.00821148 2.52337742 -0.01244164 C3.95971279 -0.03369606 3.95971279 -0.03369606 5.42506504 -0.05537987 C6.47397923 -0.05042503 7.52289341 -0.0454702 8.60359287 -0.04036522 C9.70951283 -0.05058708 10.81543278 -0.06080894 11.95486546 -0.07134056 C15.62062657 -0.09920356 19.28563867 -0.09721405 22.95149326 -0.09261131 C25.49353409 -0.10038123 28.03557232 -0.10904973 30.57760715 -0.11858177 C35.90993321 -0.1335214 41.24198292 -0.13318844 46.574296 -0.12239647 C52.7372712 -0.11031509 58.8993334 -0.13494011 65.0621528 -0.17753661 C70.99155223 -0.21701226 76.92066858 -0.22311683 82.85020733 -0.21606636 C85.37285666 -0.21709502 87.89552023 -0.22761236 90.41808987 -0.2476902 C93.94288404 -0.27230086 97.46555279 -0.25891151 100.99031162 -0.23567772 C102.56064655 -0.25860893 102.56064655 -0.25860893 104.16270542 -0.2820034 C106.8622145 -0.24257054 109.2449458 -0.15514655 111.86164951 0.50895119 C114.43417454 3.34943581 114.43417454 3.34943581 115.86164951 6.50895119 C116.42625889 7.59691994 116.99086826 8.68488869 117.57258701 9.80582619 C118.39629795 11.51512306 118.39629795 11.51512306 119.23664951 13.25895119 C121.77483521 18.50749711 124.57915887 23.42615863 127.89289951 28.22770119 C128.86164951 30.50895119 128.86164951 30.50895119 127.86164951 36.50895119 C79.68164951 36.50895119 31.50164951 36.50895119 -18.13835049 36.50895119 C-19.22716168 29.97608405 -19.22716168 29.97608405 -16.52897549 25.78629494 C-14.6117619 22.64658841 -13.01547993 19.36861613 -11.38835049 16.07145119 C-11.07059658 15.43143166 -10.75284267 14.79141212 -10.42545986 14.13199806 C-9.66123821 12.59189997 -8.89953063 11.05055478 -8.13835049 9.50895119 C-7.47835049 9.50895119 -6.81835049 9.50895119 -6.13835049 9.50895119 C-6.03522549 8.76645119 -5.93210049 8.02395119 -5.82585049 7.25895119 C-4.92187609 3.64305359 -3.84338227 0.91476771 0 0 Z " fill="#999999" transform="translate(45.13835048675537,126.49104881286621)"/>
<path d="M0 0 C37.62 0 75.24 0 114 0 C114 28.05 114 56.1 114 85 C111.63840888 86.18079556 110.23043861 86.12575288 107.59692383 86.12698364 C106.67150787 86.12980347 105.74609192 86.13262329 104.79263306 86.13552856 C103.77438446 86.13350433 102.75613586 86.1314801 101.70703125 86.12939453 C100.10207291 86.13202301 100.10207291 86.13202301 98.46469116 86.13470459 C94.91394447 86.13912003 91.36324724 86.13618618 87.8125 86.1328125 C85.35392243 86.13348563 82.89534492 86.13445573 80.43676758 86.13571167 C75.27847664 86.13718823 70.12020299 86.13503543 64.96191406 86.13037109 C58.33702722 86.12467384 51.71218089 86.12795307 45.08729553 86.13394356 C40.00882663 86.1375503 34.93036738 86.13641006 29.85189819 86.13381577 C27.40855912 86.13314681 24.96521917 86.13397383 22.5218811 86.13629532 C19.11221987 86.13882367 15.70262502 86.13497861 12.29296875 86.12939453 C11.27472015 86.13141876 10.25647156 86.13344299 9.20736694 86.13552856 C7.81924301 86.13129883 7.81924301 86.13129883 6.40307617 86.12698364 C5.59633957 86.12660662 4.78960297 86.12622959 3.9584198 86.12584114 C2 86 2 86 0 85 C0 56.95 0 28.9 0 0 Z M9 7 C9 30.1 9 53.2 9 77 C40.68 77 72.36 77 105 77 C105 53.9 105 30.8 105 7 C73.32 7 41.64 7 9 7 Z " fill="#9D9C95" transform="translate(43,37)"/>
<path d="M0 0 C35.64 0 71.28 0 108 0 C115 15 115 15 115 19 C75.07 19 35.14 19 -6 19 C-7.41852671 14.74441986 -5.88325985 13.02627968 -4 9 C-2.68 6.03 -1.36 3.06 0 0 Z " fill="#CCCCCC" transform="translate(46,132)"/>
<path d="M0 0 C19.8 0 39.6 0 60 0 C60 3.63 60 7.26 60 11 C52.08 11 44.16 11 36 11 C36 25.85 36 40.7 36 56 C32.04 56 28.08 56 24 56 C24 41.15 24 26.3 24 11 C16.08 11 8.16 11 0 11 C0 7.37 0 3.74 0 0 Z " fill="#0000FF" transform="translate(70,52)"/>
<path d="M0 0 C0.66 0.66 1.32 1.32 2 2 C4.60375798 2.30510646 4.60375798 2.30510646 7.69384766 2.25396729 C8.90534485 2.25960693 10.11684204 2.26524658 11.36505127 2.27105713 C12.71472227 2.26716818 14.06439269 2.26307182 15.4140625 2.25878906 C16.82981547 2.26149793 18.24556704 2.26505827 19.66131592 2.26940918 C23.51248359 2.27854793 27.36354444 2.27498285 31.21471405 2.26865101 C35.23901158 2.26359868 39.26329978 2.26828032 43.28759766 2.27142334 C50.04656624 2.27506523 56.80549116 2.27025806 63.56445312 2.26074219 C71.38636334 2.2498572 79.2081693 2.25338262 87.03007698 2.264395 C93.73753313 2.27346154 100.44495784 2.27475626 107.15241814 2.26951766 C111.16211532 2.26639446 115.17176346 2.26599816 119.18145752 2.27259064 C122.95054267 2.2783543 126.719493 2.27438531 130.48856354 2.26280212 C131.87452215 2.26015027 133.26049205 2.26092955 134.64644623 2.26532745 C136.5330109 2.27076341 138.41960028 2.26274939 140.30615234 2.25396729 C141.89234879 2.25283621 141.89234879 2.25283621 143.5105896 2.25168228 C146.17413822 2.24745758 146.17413822 2.24745758 148 0 C147.67 1.98 147.34 3.96 147 6 C98.82 6 50.64 6 1 6 C0.67 4.02 0.34 2.04 0 0 Z " fill="#FBFBFB" transform="translate(26,157)"/>
<path d="M0 0 C0.66 0.66 1.32 1.32 2 2 C4.60375798 2.30510646 4.60375798 2.30510646 7.69384766 2.25396729 C8.90534485 2.25960693 10.11684204 2.26524658 11.36505127 2.27105713 C12.71472227 2.26716818 14.06439269 2.26307182 15.4140625 2.25878906 C16.82981547 2.26149793 18.24556704 2.26505827 19.66131592 2.26940918 C23.51248359 2.27854793 27.36354444 2.27498285 31.21471405 2.26865101 C35.23901158 2.26359868 39.26329978 2.26828032 43.28759766 2.27142334 C50.04656624 2.27506523 56.80549116 2.27025806 63.56445312 2.26074219 C71.38636334 2.2498572 79.2081693 2.25338262 87.03007698 2.264395 C93.73753313 2.27346154 100.44495784 2.27475626 107.15241814 2.26951766 C111.16211532 2.26639446 115.17176346 2.26599816 119.18145752 2.27259064 C122.95054267 2.2783543 126.719493 2.27438531 130.48856354 2.26280212 C131.87452215 2.26015027 133.26049205 2.26092955 134.64644623 2.26532745 C136.5330109 2.27076341 138.41960028 2.26274939 140.30615234 2.25396729 C141.89234879 2.25283621 141.89234879 2.25283621 143.5105896 2.25168228 C146.17413822 2.24745758 146.17413822 2.24745758 148 0 C147.67 1.98 147.34 3.96 147 6 C146.01 5.505 146.01 5.505 145 5 C143.12510037 4.8944771 141.24645284 4.85337317 139.36862183 4.84178162 C137.57228302 4.82709839 137.57228302 4.82709839 135.73965454 4.81211853 C134.40570108 4.806214 133.07174721 4.80040357 131.73779297 4.79467773 C130.33849802 4.78510153 128.93920597 4.7750916 127.53991699 4.76467896 C123.73439024 4.73759588 119.92885105 4.71660478 116.123281 4.69667697 C112.14874333 4.67483837 108.17424417 4.6474393 104.19973755 4.62062073 C96.67039056 4.57066504 89.14102222 4.5257369 81.61163342 4.48259836 C73.04098712 4.43325054 64.47037945 4.37832332 55.8997705 4.32291877 C38.26654952 4.20905458 20.6332921 4.10222522 3 4 C3 4.66 3 5.32 3 6 C2.34 6 1.68 6 1 6 C0.67 4.02 0.34 2.04 0 0 Z " fill="#ECECEC" transform="translate(26,157)"/>
</svg>
