<svg xmlns="http://www.w3.org/2000/svg" viewBox="0 0 32 32" fill-rule="evenodd"><path d="M5 32V0H4V1H2V0H1V32H2V30H4V32H5ZM2 29H4V26H2V29ZM4 25H2V22H4V25ZM2 21H4V18H2V21ZM2 17H4V14H2V17ZM4 13H2V10H4V13ZM4 9H2V6H4V9ZM4 5V2H2V5H4ZM6 6V0H26V6H6ZM6 7V24H26V7H6ZM6 25V32H26V25H6ZM28 32H27V0H28V1H30V0H31V32H30V30H28V32ZM28 2H30V5H28V2ZM28 6H30V9H28V6ZM28 10H30V13H28V10ZM28 14H30V17H28V14ZM28 18H30V21H28V18ZM28 22H30V25H28V22ZM28 26H30V29H28V26Z" fill="#000"/><path d="M0 0H1V32H0V0ZM2 1V0H4V1H2ZM4 5H2V2H4V5ZM4 9H2V6H4V9ZM4 13H2V10H4V13ZM4 17H2V14H4V17ZM4 21H2V18H4V21ZM4 25H2V22H4V25ZM4 29H2V26H4V29ZM2 32V30H4V32H2ZM5 0H6V6H26V0H27V32H26V25H6V32H5V0ZM26 7H6V24H26V7ZM28 0V1H30V0H28ZM30 2H28V5H30V2ZM28 6H30V9H28V6ZM28 10H30V13H28V10ZM28 14H30V17H28V14ZM28 18H30V21H28V18ZM28 22H30V25H28V22ZM28 26H30V29H28V26ZM28 30H30V32H28V30ZM31 0H32V32H31V0Z" fill="#fff"/></svg>